{
	"patcher" : 	{
		"fileversion" : 1,
		"appversion" : 		{
			"major" : 8,
			"minor" : 5,
			"revision" : 6,
			"architecture" : "x64",
			"modernui" : 1
		}
,
		"classnamespace" : "box",
		"rect" : [ 437.0, 218.0, 1028.0, 499.0 ],
		"bglocked" : 0,
		"openinpresentation" : 0,
		"default_fontsize" : 12.0,
		"default_fontface" : 0,
		"default_fontname" : "Arial",
		"gridonopen" : 1,
		"gridsize" : [ 15.0, 15.0 ],
		"gridsnaponopen" : 1,
		"objectsnaponopen" : 1,
		"statusbarvisible" : 2,
		"toolbarvisible" : 1,
		"lefttoolbarpinned" : 0,
		"toptoolbarpinned" : 0,
		"righttoolbarpinned" : 0,
		"bottomtoolbarpinned" : 0,
		"toolbars_unpinned_last_save" : 0,
		"tallnewobj" : 0,
		"boxanimatetime" : 200,
		"enablehscroll" : 1,
		"enablevscroll" : 1,
		"devicewidth" : 0.0,
		"description" : "",
		"digest" : "",
		"tags" : "",
		"style" : "",
		"subpatcher_template" : "",
		"assistshowspatchername" : 0,
		"boxes" : [ 			{
				"box" : 				{
					"id" : "obj-2",
					"linecount" : 3,
					"maxclass" : "message",
					"numinlets" : 2,
					"numoutlets" : 1,
					"outlettype" : [ "" ],
					"patching_rect" : [ 360.0, 35.0, 177.0, 50.0 ],
					"text" : "read trommemaskiner-100-claps-analysis-corpus.json"
				}

			}
, 			{
				"box" : 				{
					"id" : "obj-17",
					"maxclass" : "comment",
					"numinlets" : 1,
					"numoutlets" : 0,
					"patching_rect" : [ 556.5, 50.0, 196.0, 20.0 ],
					"text" : "read and explore analysed corpus"
				}

			}
, 			{
				"box" : 				{
					"id" : "obj-16",
					"maxclass" : "comment",
					"numinlets" : 1,
					"numoutlets" : 0,
					"patching_rect" : [ 18.0, 8.389588837156566, 150.0, 20.0 ],
					"text" : "create analysed corpus"
				}

			}
, 			{
				"box" : 				{
					"id" : "obj-14",
					"linecount" : 3,
					"maxclass" : "message",
					"numinlets" : 2,
					"numoutlets" : 1,
					"outlettype" : [ "" ],
					"patching_rect" : [ 397.5, 91.0, 157.0, 50.0 ],
					"text" : "read trommemaskiner-100-claves-analysis-corpus.json"
				}

			}
, 			{
				"box" : 				{
					"bgmode" : 0,
					"border" : 0,
					"clickthrough" : 0,
					"enablehscroll" : 0,
					"enablevscroll" : 0,
					"id" : "obj-12",
					"lockeddragscroll" : 0,
					"lockedsize" : 0,
					"maxclass" : "bpatcher",
					"name" : "sp.plotter.maxpat",
					"numinlets" : 1,
					"numoutlets" : 2,
					"offset" : [ 0.0, 0.0 ],
					"outlettype" : [ "", "" ],
					"patching_rect" : [ 18.0, 111.0, 235.0, 235.0 ],
					"viewvisibility" : 1
				}

			}
, 			{
				"box" : 				{
					"bgmode" : 0,
					"border" : 0,
					"clickthrough" : 0,
					"enablehscroll" : 0,
					"enablevscroll" : 0,
					"id" : "obj-1",
					"lockeddragscroll" : 0,
					"lockedsize" : 0,
					"maxclass" : "bpatcher",
					"name" : "sp.corpuslist.maxpat",
					"numinlets" : 1,
					"numoutlets" : 1,
					"offset" : [ 0.0, 0.0 ],
					"outlettype" : [ "" ],
					"patching_rect" : [ 759.5, 190.0, 235.0, 235.0 ],
					"viewvisibility" : 1
				}

			}
, 			{
				"box" : 				{
					"id" : "obj-98",
					"maxclass" : "newobj",
					"numinlets" : 1,
					"numoutlets" : 2,
					"outlettype" : [ "signal", "signal" ],
					"patching_rect" : [ 360.5, 200.610411162843434, 100.0, 22.0 ],
					"text" : "sp.corpusplayer~"
				}

			}
, 			{
				"box" : 				{
					"id" : "obj-99",
					"maxclass" : "ezdac~",
					"numinlets" : 2,
					"numoutlets" : 0,
					"patching_rect" : [ 360.5, 245.220822325686754, 45.0, 45.0 ]
				}

			}
, 			{
				"box" : 				{
					"bgmode" : 0,
					"border" : 0,
					"clickthrough" : 0,
					"enablehscroll" : 0,
					"enablevscroll" : 0,
					"id" : "obj-7",
					"lockeddragscroll" : 0,
					"lockedsize" : 0,
					"maxclass" : "bpatcher",
					"name" : "sp.plotter.maxpat",
					"numinlets" : 1,
					"numoutlets" : 2,
					"offset" : [ 0.0, 0.0 ],
					"outlettype" : [ "", "" ],
					"patching_rect" : [ 517.5, 200.610411162843434, 235.0, 235.0 ],
					"viewvisibility" : 1
				}

			}
, 			{
				"box" : 				{
					"id" : "obj-11",
					"maxclass" : "newobj",
					"numinlets" : 1,
					"numoutlets" : 2,
					"outlettype" : [ "", "" ],
					"patching_rect" : [ 360.5, 156.0, 176.0, 22.0 ],
					"text" : "sp.corpusmatch"
				}

			}
, 			{
				"box" : 				{
					"id" : "obj-13",
					"maxclass" : "message",
					"numinlets" : 2,
					"numoutlets" : 1,
					"outlettype" : [ "" ],
					"patching_rect" : [ 18.0, 34.0, 31.0, 22.0 ],
					"text" : "load"
				}

			}
, 			{
				"box" : 				{
					"id" : "obj-4",
					"maxclass" : "newobj",
					"numinlets" : 1,
					"numoutlets" : 2,
					"outlettype" : [ "", "" ],
					"patching_rect" : [ 18.0, 77.0, 261.0, 22.0 ],
					"text" : "sp.corpuscreate"
				}

			}
, 			{
				"box" : 				{
					"id" : "obj-10",
					"maxclass" : "message",
					"numinlets" : 2,
					"numoutlets" : 1,
					"outlettype" : [ "" ],
					"patching_rect" : [ 245.0, 34.0, 34.0, 22.0 ],
					"text" : "write"
				}

			}
, 			{
				"box" : 				{
					"id" : "obj-42",
					"maxclass" : "comment",
					"numinlets" : 1,
					"numoutlets" : 0,
					"patching_rect" : [ 260.0, 111.0, 72.0, 20.0 ],
					"text" : "00:36.162"
				}

			}
, 			{
				"box" : 				{
					"id" : "obj-31",
					"maxclass" : "message",
					"numinlets" : 2,
					"numoutlets" : 1,
					"outlettype" : [ "" ],
					"patching_rect" : [ 196.0, 34.0, 35.0, 22.0 ],
					"text" : "clear"
				}

			}
, 			{
				"box" : 				{
					"id" : "obj-29",
					"maxclass" : "message",
					"numinlets" : 2,
					"numoutlets" : 1,
					"outlettype" : [ "" ],
					"patching_rect" : [ 152.0, 34.0, 32.0, 22.0 ],
					"text" : "print"
				}

			}
 ],
		"lines" : [ 			{
				"patchline" : 				{
					"destination" : [ "obj-7", 0 ],
					"midpoints" : [ 769.0, 451.610411162843434, 758.0, 451.610411162843434, 758.0, 189.610411162843434, 527.0, 189.610411162843434 ],
					"order" : 1,
					"source" : [ "obj-1", 0 ]
				}

			}
, 			{
				"patchline" : 				{
					"destination" : [ "obj-98", 0 ],
					"midpoints" : [ 769.0, 456.856127766476106, 346.5, 456.856127766476106, 346.5, 195.610411162843434, 370.0, 195.610411162843434 ],
					"order" : 0,
					"source" : [ "obj-1", 0 ]
				}

			}
, 			{
				"patchline" : 				{
					"destination" : [ "obj-4", 0 ],
					"midpoints" : [ 254.5, 66.0, 27.5, 66.0 ],
					"source" : [ "obj-10", 0 ]
				}

			}
, 			{
				"patchline" : 				{
					"destination" : [ "obj-1", 0 ],
					"midpoints" : [ 527.0, 188.80520558142166, 769.0, 188.80520558142166 ],
					"order" : 1,
					"source" : [ "obj-11", 1 ]
				}

			}
, 			{
				"patchline" : 				{
					"destination" : [ "obj-7", 0 ],
					"order" : 0,
					"source" : [ "obj-11", 1 ]
				}

			}
, 			{
				"patchline" : 				{
					"destination" : [ "obj-98", 0 ],
					"source" : [ "obj-11", 0 ]
				}

			}
, 			{
				"patchline" : 				{
					"destination" : [ "obj-4", 0 ],
					"source" : [ "obj-13", 0 ]
				}

			}
, 			{
				"patchline" : 				{
					"destination" : [ "obj-11", 0 ],
					"source" : [ "obj-14", 0 ]
				}

			}
, 			{
				"patchline" : 				{
					"destination" : [ "obj-11", 0 ],
					"source" : [ "obj-2", 0 ]
				}

			}
, 			{
				"patchline" : 				{
					"destination" : [ "obj-4", 0 ],
					"midpoints" : [ 161.5, 66.0, 27.5, 66.0 ],
					"source" : [ "obj-29", 0 ]
				}

			}
, 			{
				"patchline" : 				{
					"destination" : [ "obj-4", 0 ],
					"midpoints" : [ 205.5, 63.0, 27.5, 63.0 ],
					"source" : [ "obj-31", 0 ]
				}

			}
, 			{
				"patchline" : 				{
					"destination" : [ "obj-12", 0 ],
					"source" : [ "obj-4", 0 ]
				}

			}
, 			{
				"patchline" : 				{
					"destination" : [ "obj-42", 0 ],
					"source" : [ "obj-4", 1 ]
				}

			}
, 			{
				"patchline" : 				{
					"destination" : [ "obj-1", 0 ],
					"midpoints" : [ 527.0, 451.610411162843434, 758.0, 451.610411162843434, 758.0, 189.610411162843434, 769.0, 189.610411162843434 ],
					"order" : 1,
					"source" : [ "obj-7", 0 ]
				}

			}
, 			{
				"patchline" : 				{
					"destination" : [ "obj-98", 0 ],
					"midpoints" : [ 527.0, 450.856127766476106, 346.0, 450.856127766476106, 346.0, 193.856127766476106, 370.0, 193.856127766476106 ],
					"order" : 0,
					"source" : [ "obj-7", 0 ]
				}

			}
, 			{
				"patchline" : 				{
					"destination" : [ "obj-99", 1 ],
					"source" : [ "obj-98", 1 ]
				}

			}
, 			{
				"patchline" : 				{
					"destination" : [ "obj-99", 0 ],
					"source" : [ "obj-98", 0 ]
				}

			}
 ],
		"parameters" : 		{
			"obj-4::obj-22::obj-7::obj-69" : [ "live.text[3]", "live.text", 0 ],
			"obj-4::obj-22::obj-7::obj-70" : [ "live.text[2]", "live.text", 0 ],
			"parameterbanks" : 			{
				"0" : 				{
					"index" : 0,
					"name" : "",
					"parameters" : [ "-", "-", "-", "-", "-", "-", "-", "-" ]
				}

			}
,
			"parameter_overrides" : 			{
				"obj-4::obj-22::obj-7::obj-69" : 				{
					"parameter_longname" : "live.text[3]"
				}
,
				"obj-4::obj-22::obj-7::obj-70" : 				{
					"parameter_longname" : "live.text[2]"
				}

			}
,
			"inherited_shortname" : 1
		}
,
		"dependency_cache" : [ 			{
				"name" : "fluid.buf2list.mxe64",
				"type" : "mx64"
			}
, 			{
				"name" : "fluid.bufcompose~.mxe64",
				"type" : "mx64"
			}
, 			{
				"name" : "fluid.bufflatten~.mxe64",
				"type" : "mx64"
			}
, 			{
				"name" : "fluid.bufloudness~.mxe64",
				"type" : "mx64"
			}
, 			{
				"name" : "fluid.bufmelbands~.mxe64",
				"type" : "mx64"
			}
, 			{
				"name" : "fluid.bufmfcc~.mxe64",
				"type" : "mx64"
			}
, 			{
				"name" : "fluid.bufpitch~.mxe64",
				"type" : "mx64"
			}
, 			{
				"name" : "fluid.bufscale~.mxe64",
				"type" : "mx64"
			}
, 			{
				"name" : "fluid.bufselectevery~.mxe64",
				"type" : "mx64"
			}
, 			{
				"name" : "fluid.bufsinefeature~.mxe64",
				"type" : "mx64"
			}
, 			{
				"name" : "fluid.bufspectralshape~.mxe64",
				"type" : "mx64"
			}
, 			{
				"name" : "fluid.bufstats~.mxe64",
				"type" : "mx64"
			}
, 			{
				"name" : "fluid.datasetquery~.mxe64",
				"type" : "mx64"
			}
, 			{
				"name" : "fluid.dataset~.mxe64",
				"type" : "mx64"
			}
, 			{
				"name" : "fluid.kdtree~.mxe64",
				"type" : "mx64"
			}
, 			{
				"name" : "fluid.labelset~.mxe64",
				"type" : "mx64"
			}
, 			{
				"name" : "fluid.list2buf.mxe64",
				"type" : "mx64"
			}
, 			{
				"name" : "fluid.mlpregressor~.mxe64",
				"type" : "mx64"
			}
, 			{
				"name" : "fluid.normalize~.mxe64",
				"type" : "mx64"
			}
, 			{
				"name" : "fluid.robustscale~.mxe64",
				"type" : "mx64"
			}
, 			{
				"name" : "fluid.umap~.mxe64",
				"type" : "mx64"
			}
, 			{
				"name" : "sp.corpuscreate.maxpat",
				"bootpath" : "~/Documents/Max 8/Packages/SP-Tools/patchers",
				"patcherrelativepath" : "../../Packages/SP-Tools/patchers",
				"type" : "JSON",
				"implicit" : 1
			}
, 			{
				"name" : "sp.corpuslist.maxpat",
				"bootpath" : "~/Documents/Max 8/Packages/SP-Tools/patchers",
				"patcherrelativepath" : "../../Packages/SP-Tools/patchers",
				"type" : "JSON",
				"implicit" : 1
			}
, 			{
				"name" : "sp.corpusmatch.maxpat",
				"bootpath" : "~/Documents/Max 8/Packages/SP-Tools/patchers",
				"patcherrelativepath" : "../../Packages/SP-Tools/patchers",
				"type" : "JSON",
				"implicit" : 1
			}
, 			{
				"name" : "sp.corpusplayer~.maxpat",
				"bootpath" : "~/Documents/Max 8/Packages/SP-Tools/patchers",
				"patcherrelativepath" : "../../Packages/SP-Tools/patchers",
				"type" : "JSON",
				"implicit" : 1
			}
, 			{
				"name" : "sp.descriptorframe.maxpat",
				"bootpath" : "~/Documents/Max 8/Packages/SP-Tools/patchers",
				"patcherrelativepath" : "../../Packages/SP-Tools/patchers",
				"type" : "JSON",
				"implicit" : 1
			}
, 			{
				"name" : "sp.melbandframe.maxpat",
				"bootpath" : "~/Documents/Max 8/Packages/SP-Tools/patchers",
				"patcherrelativepath" : "../../Packages/SP-Tools/patchers",
				"type" : "JSON",
				"implicit" : 1
			}
, 			{
				"name" : "sp.mfccframe.maxpat",
				"bootpath" : "~/Documents/Max 8/Packages/SP-Tools/patchers",
				"patcherrelativepath" : "../../Packages/SP-Tools/patchers",
				"type" : "JSON",
				"implicit" : 1
			}
, 			{
				"name" : "sp.plotter.js",
				"bootpath" : "~/Documents/Max 8/Packages/SP-Tools/jsui",
				"patcherrelativepath" : "../../Packages/SP-Tools/jsui",
				"type" : "TEXT",
				"implicit" : 1
			}
, 			{
				"name" : "sp.plotter.maxpat",
				"bootpath" : "~/Documents/Max 8/Packages/SP-Tools/patchers",
				"patcherrelativepath" : "../../Packages/SP-Tools/patchers",
				"type" : "JSON",
				"implicit" : 1
			}
, 			{
				"name" : "sp.sineframe.maxpat",
				"bootpath" : "~/Documents/Max 8/Packages/SP-Tools/patchers",
				"patcherrelativepath" : "../../Packages/SP-Tools/patchers",
				"type" : "JSON",
				"implicit" : 1
			}
, 			{
				"name" : "widgetcorpusfolderanalysis.maxpat",
				"bootpath" : "~/Documents/Max 8/Packages/SP-Tools/misc/Misc",
				"patcherrelativepath" : "../../Packages/SP-Tools/misc/Misc",
				"type" : "JSON",
				"implicit" : 1
			}
, 			{
				"name" : "widgetcrossbank~.maxpat",
				"bootpath" : "~/Documents/Max 8/Packages/SP-Tools/misc/Misc",
				"patcherrelativepath" : "../../Packages/SP-Tools/misc/Misc",
				"type" : "JSON",
				"implicit" : 1
			}
, 			{
				"name" : "widgetfolderloop.maxpat",
				"bootpath" : "~/Documents/Max 8/Packages/SP-Tools/misc/Misc",
				"patcherrelativepath" : "../../Packages/SP-Tools/misc/Misc",
				"type" : "JSON",
				"implicit" : 1
			}
, 			{
				"name" : "widgetplaybackcore~.maxpat",
				"bootpath" : "~/Documents/Max 8/Packages/SP-Tools/misc/Misc",
				"patcherrelativepath" : "../../Packages/SP-Tools/misc/Misc",
				"type" : "JSON",
				"implicit" : 1
			}
 ],
		"autosave" : 0
	}

}
